<mxfile host="app.diagrams.net" agent="Mozilla/5.0 (Windows NT 10.0; Win64; x64) AppleWebKit/537.36 (KHTML, like Gecko) Chrome/134.0.0.0 Safari/537.36" version="26.1.0">
  <diagram name="Página-1" id="rvEfrgE5JFQoziUhNk0A">
    <mxGraphModel dx="1434" dy="780" grid="1" gridSize="10" guides="1" tooltips="1" connect="1" arrows="1" fold="1" page="1" pageScale="1" pageWidth="827" pageHeight="1169" math="0" shadow="0">
      <root>
        <mxCell id="0" />
        <mxCell id="1" parent="0" />
        <mxCell id="opVXN3zFpJdvf0EpLGTF-5" value="&lt;font style=&quot;vertical-align: inherit;&quot;&gt;&lt;font style=&quot;vertical-align: inherit;&quot;&gt;Usuario&lt;/font&gt;&lt;/font&gt;" style="swimlane;fontStyle=1;align=center;verticalAlign=top;childLayout=stackLayout;horizontal=1;startSize=20;horizontalStack=0;resizeParent=1;resizeParentMax=0;resizeLast=0;collapsible=1;marginBottom=0;whiteSpace=wrap;html=1;" vertex="1" parent="1">
          <mxGeometry x="320" y="40" width="160" height="172" as="geometry" />
        </mxCell>
        <mxCell id="opVXN3zFpJdvf0EpLGTF-6" value="&lt;div&gt;&lt;font style=&quot;vertical-align: inherit;&quot;&gt;&lt;font style=&quot;vertical-align: inherit;&quot;&gt;&lt;font style=&quot;vertical-align: inherit;&quot;&gt;&lt;font style=&quot;vertical-align: inherit;&quot;&gt;+ id: int&lt;/font&gt;&lt;/font&gt;&lt;/font&gt;&lt;/font&gt;&lt;/div&gt;&lt;div&gt;&lt;font style=&quot;vertical-align: inherit;&quot;&gt;&lt;font style=&quot;vertical-align: inherit;&quot;&gt;&lt;font style=&quot;vertical-align: inherit;&quot;&gt;&lt;font style=&quot;vertical-align: inherit;&quot;&gt;+ nombre: string&lt;/font&gt;&lt;/font&gt;&lt;/font&gt;&lt;/font&gt;&lt;/div&gt;&lt;div&gt;&lt;font style=&quot;vertical-align: inherit;&quot;&gt;&lt;font style=&quot;vertical-align: inherit;&quot;&gt;&lt;font style=&quot;vertical-align: inherit;&quot;&gt;&lt;font style=&quot;vertical-align: inherit;&quot;&gt;+ email: string&lt;/font&gt;&lt;/font&gt;&lt;/font&gt;&lt;/font&gt;&lt;/div&gt;&lt;div&gt;&lt;font style=&quot;vertical-align: inherit;&quot;&gt;&lt;font style=&quot;vertical-align: inherit;&quot;&gt;&lt;font style=&quot;vertical-align: inherit;&quot;&gt;&lt;font style=&quot;vertical-align: inherit;&quot;&gt;+ contraseña: string&lt;/font&gt;&lt;/font&gt;&lt;/font&gt;&lt;/font&gt;&lt;/div&gt;&lt;div&gt;&lt;font style=&quot;vertical-align: inherit;&quot;&gt;&lt;font style=&quot;vertical-align: inherit;&quot;&gt;&lt;font style=&quot;vertical-align: inherit;&quot;&gt;&lt;font style=&quot;vertical-align: inherit;&quot;&gt;+ rol: string&lt;/font&gt;&lt;/font&gt;&lt;/font&gt;&lt;/font&gt;&lt;/div&gt;" style="text;strokeColor=none;fillColor=none;align=left;verticalAlign=top;spacingLeft=4;spacingRight=4;overflow=hidden;rotatable=0;points=[[0,0.5],[1,0.5]];portConstraint=eastwest;whiteSpace=wrap;html=1;" vertex="1" parent="opVXN3zFpJdvf0EpLGTF-5">
          <mxGeometry y="20" width="160" height="90" as="geometry" />
        </mxCell>
        <mxCell id="opVXN3zFpJdvf0EpLGTF-7" value="" style="line;strokeWidth=1;fillColor=none;align=left;verticalAlign=middle;spacingTop=-1;spacingLeft=3;spacingRight=3;rotatable=0;labelPosition=right;points=[];portConstraint=eastwest;strokeColor=inherit;" vertex="1" parent="opVXN3zFpJdvf0EpLGTF-5">
          <mxGeometry y="110" width="160" height="8" as="geometry" />
        </mxCell>
        <mxCell id="opVXN3zFpJdvf0EpLGTF-8" value="+ registrar()&lt;div&gt;+ login()&lt;/div&gt;&lt;div&gt;+ logout()&lt;/div&gt;" style="text;strokeColor=none;fillColor=none;align=left;verticalAlign=top;spacingLeft=4;spacingRight=4;overflow=hidden;rotatable=0;points=[[0,0.5],[1,0.5]];portConstraint=eastwest;whiteSpace=wrap;html=1;" vertex="1" parent="opVXN3zFpJdvf0EpLGTF-5">
          <mxGeometry y="118" width="160" height="54" as="geometry" />
        </mxCell>
        <mxCell id="opVXN3zFpJdvf0EpLGTF-9" value="Reseña" style="swimlane;fontStyle=1;align=center;verticalAlign=top;childLayout=stackLayout;horizontal=1;startSize=26;horizontalStack=0;resizeParent=1;resizeParentMax=0;resizeLast=0;collapsible=1;marginBottom=0;whiteSpace=wrap;html=1;" vertex="1" parent="1">
          <mxGeometry x="470" y="520" width="160" height="170" as="geometry" />
        </mxCell>
        <mxCell id="opVXN3zFpJdvf0EpLGTF-10" value="+ id: int&lt;div&gt;+ comentario: string&lt;/div&gt;&lt;div&gt;+ puntuacion: int&lt;/div&gt;&lt;div&gt;+ fecha: datetime&lt;/div&gt;" style="text;strokeColor=none;fillColor=none;align=left;verticalAlign=top;spacingLeft=4;spacingRight=4;overflow=hidden;rotatable=0;points=[[0,0.5],[1,0.5]];portConstraint=eastwest;whiteSpace=wrap;html=1;" vertex="1" parent="opVXN3zFpJdvf0EpLGTF-9">
          <mxGeometry y="26" width="160" height="74" as="geometry" />
        </mxCell>
        <mxCell id="opVXN3zFpJdvf0EpLGTF-11" value="" style="line;strokeWidth=1;fillColor=none;align=left;verticalAlign=middle;spacingTop=-1;spacingLeft=3;spacingRight=3;rotatable=0;labelPosition=right;points=[];portConstraint=eastwest;strokeColor=inherit;" vertex="1" parent="opVXN3zFpJdvf0EpLGTF-9">
          <mxGeometry y="100" width="160" height="8" as="geometry" />
        </mxCell>
        <mxCell id="opVXN3zFpJdvf0EpLGTF-12" value="+ crearReseña()&lt;div&gt;+eliminarReseña()&lt;/div&gt;" style="text;strokeColor=none;fillColor=none;align=left;verticalAlign=top;spacingLeft=4;spacingRight=4;overflow=hidden;rotatable=0;points=[[0,0.5],[1,0.5]];portConstraint=eastwest;whiteSpace=wrap;html=1;" vertex="1" parent="opVXN3zFpJdvf0EpLGTF-9">
          <mxGeometry y="108" width="160" height="62" as="geometry" />
        </mxCell>
        <mxCell id="opVXN3zFpJdvf0EpLGTF-31" style="edgeStyle=orthogonalEdgeStyle;rounded=0;orthogonalLoop=1;jettySize=auto;html=1;exitX=0.5;exitY=0;exitDx=0;exitDy=0;" edge="1" parent="1" source="opVXN3zFpJdvf0EpLGTF-13">
          <mxGeometry relative="1" as="geometry">
            <mxPoint x="400" y="220" as="targetPoint" />
          </mxGeometry>
        </mxCell>
        <mxCell id="opVXN3zFpJdvf0EpLGTF-13" value="Profesional" style="swimlane;fontStyle=1;align=center;verticalAlign=top;childLayout=stackLayout;horizontal=1;startSize=26;horizontalStack=0;resizeParent=1;resizeParentMax=0;resizeLast=0;collapsible=1;marginBottom=0;whiteSpace=wrap;html=1;" vertex="1" parent="1">
          <mxGeometry x="320" y="280" width="160" height="156" as="geometry" />
        </mxCell>
        <mxCell id="opVXN3zFpJdvf0EpLGTF-14" value="&lt;div&gt;&lt;span style=&quot;background-color: transparent; color: light-dark(rgb(0, 0, 0), rgb(255, 255, 255));&quot;&gt;+ nombreNegocio: string&lt;/span&gt;&lt;/div&gt;&lt;div&gt;+ descripNegocio: string&lt;/div&gt;&lt;div&gt;+ actividades: array&lt;/div&gt;" style="text;strokeColor=none;fillColor=none;align=left;verticalAlign=top;spacingLeft=4;spacingRight=4;overflow=hidden;rotatable=0;points=[[0,0.5],[1,0.5]];portConstraint=eastwest;whiteSpace=wrap;html=1;" vertex="1" parent="opVXN3zFpJdvf0EpLGTF-13">
          <mxGeometry y="26" width="160" height="60" as="geometry" />
        </mxCell>
        <mxCell id="opVXN3zFpJdvf0EpLGTF-15" value="" style="line;strokeWidth=1;fillColor=none;align=left;verticalAlign=middle;spacingTop=-1;spacingLeft=3;spacingRight=3;rotatable=0;labelPosition=right;points=[];portConstraint=eastwest;strokeColor=inherit;" vertex="1" parent="opVXN3zFpJdvf0EpLGTF-13">
          <mxGeometry y="86" width="160" height="8" as="geometry" />
        </mxCell>
        <mxCell id="opVXN3zFpJdvf0EpLGTF-16" value="+ crearAct()&lt;div&gt;+ modificarAct()&lt;/div&gt;&lt;div&gt;+ gestionarReseña()&lt;/div&gt;" style="text;strokeColor=none;fillColor=none;align=left;verticalAlign=top;spacingLeft=4;spacingRight=4;overflow=hidden;rotatable=0;points=[[0,0.5],[1,0.5]];portConstraint=eastwest;whiteSpace=wrap;html=1;" vertex="1" parent="opVXN3zFpJdvf0EpLGTF-13">
          <mxGeometry y="94" width="160" height="62" as="geometry" />
        </mxCell>
        <mxCell id="opVXN3zFpJdvf0EpLGTF-30" style="edgeStyle=orthogonalEdgeStyle;rounded=0;orthogonalLoop=1;jettySize=auto;html=1;exitX=0.5;exitY=0;exitDx=0;exitDy=0;" edge="1" parent="1" source="opVXN3zFpJdvf0EpLGTF-17">
          <mxGeometry relative="1" as="geometry">
            <mxPoint x="430" y="220" as="targetPoint" />
          </mxGeometry>
        </mxCell>
        <mxCell id="opVXN3zFpJdvf0EpLGTF-17" value="Admin" style="swimlane;fontStyle=1;align=center;verticalAlign=top;childLayout=stackLayout;horizontal=1;startSize=26;horizontalStack=0;resizeParent=1;resizeParentMax=0;resizeLast=0;collapsible=1;marginBottom=0;whiteSpace=wrap;html=1;" vertex="1" parent="1">
          <mxGeometry x="560" y="280" width="160" height="140" as="geometry" />
        </mxCell>
        <mxCell id="opVXN3zFpJdvf0EpLGTF-19" value="" style="line;strokeWidth=1;fillColor=none;align=left;verticalAlign=middle;spacingTop=-1;spacingLeft=3;spacingRight=3;rotatable=0;labelPosition=right;points=[];portConstraint=eastwest;strokeColor=inherit;" vertex="1" parent="opVXN3zFpJdvf0EpLGTF-17">
          <mxGeometry y="26" width="160" height="34" as="geometry" />
        </mxCell>
        <mxCell id="opVXN3zFpJdvf0EpLGTF-20" value="+ gestionarUsuario()&lt;div&gt;+ gestionarAct()&lt;/div&gt;&lt;div&gt;+ moderarReseña()&lt;/div&gt;" style="text;strokeColor=none;fillColor=none;align=left;verticalAlign=top;spacingLeft=4;spacingRight=4;overflow=hidden;rotatable=0;points=[[0,0.5],[1,0.5]];portConstraint=eastwest;whiteSpace=wrap;html=1;" vertex="1" parent="opVXN3zFpJdvf0EpLGTF-17">
          <mxGeometry y="60" width="160" height="80" as="geometry" />
        </mxCell>
        <mxCell id="opVXN3zFpJdvf0EpLGTF-21" value="Actividad" style="swimlane;fontStyle=1;align=center;verticalAlign=top;childLayout=stackLayout;horizontal=1;startSize=26;horizontalStack=0;resizeParent=1;resizeParentMax=0;resizeLast=0;collapsible=1;marginBottom=0;whiteSpace=wrap;html=1;" vertex="1" parent="1">
          <mxGeometry x="200" y="520" width="160" height="224" as="geometry" />
        </mxCell>
        <mxCell id="opVXN3zFpJdvf0EpLGTF-22" value="+ idAct: int&lt;div&gt;+ nombre: string&lt;/div&gt;&lt;div&gt;+ambito: string&lt;/div&gt;&lt;div&gt;+zona: string&lt;/div&gt;&lt;div&gt;+plazasDisponibles: int&lt;/div&gt;&lt;div&gt;+edadMin: int&lt;/div&gt;&lt;div&gt;+edadMax: int&lt;/div&gt;&lt;div&gt;+horario: string&lt;/div&gt;&lt;div&gt;+ precio: float&lt;/div&gt;&lt;div&gt;+ descripcion: string&lt;/div&gt;&lt;div&gt;&lt;br&gt;&lt;/div&gt;" style="text;strokeColor=none;fillColor=none;align=left;verticalAlign=top;spacingLeft=4;spacingRight=4;overflow=hidden;rotatable=0;points=[[0,0.5],[1,0.5]];portConstraint=eastwest;whiteSpace=wrap;html=1;" vertex="1" parent="opVXN3zFpJdvf0EpLGTF-21">
          <mxGeometry y="26" width="160" height="164" as="geometry" />
        </mxCell>
        <mxCell id="opVXN3zFpJdvf0EpLGTF-23" value="" style="line;strokeWidth=1;fillColor=none;align=left;verticalAlign=middle;spacingTop=-1;spacingLeft=3;spacingRight=3;rotatable=0;labelPosition=right;points=[];portConstraint=eastwest;strokeColor=inherit;" vertex="1" parent="opVXN3zFpJdvf0EpLGTF-21">
          <mxGeometry y="190" width="160" height="8" as="geometry" />
        </mxCell>
        <mxCell id="opVXN3zFpJdvf0EpLGTF-24" value="+ mostrarDetalles()" style="text;strokeColor=none;fillColor=none;align=left;verticalAlign=top;spacingLeft=4;spacingRight=4;overflow=hidden;rotatable=0;points=[[0,0.5],[1,0.5]];portConstraint=eastwest;whiteSpace=wrap;html=1;" vertex="1" parent="opVXN3zFpJdvf0EpLGTF-21">
          <mxGeometry y="198" width="160" height="26" as="geometry" />
        </mxCell>
        <mxCell id="opVXN3zFpJdvf0EpLGTF-32" style="edgeStyle=orthogonalEdgeStyle;rounded=0;orthogonalLoop=1;jettySize=auto;html=1;" edge="1" parent="1" source="opVXN3zFpJdvf0EpLGTF-25">
          <mxGeometry relative="1" as="geometry">
            <mxPoint x="370" y="220" as="targetPoint" />
            <Array as="points">
              <mxPoint x="160" y="250" />
              <mxPoint x="370" y="250" />
              <mxPoint x="370" y="220" />
            </Array>
          </mxGeometry>
        </mxCell>
        <mxCell id="opVXN3zFpJdvf0EpLGTF-25" value="Padre" style="swimlane;fontStyle=1;align=center;verticalAlign=top;childLayout=stackLayout;horizontal=1;startSize=26;horizontalStack=0;resizeParent=1;resizeParentMax=0;resizeLast=0;collapsible=1;marginBottom=0;whiteSpace=wrap;html=1;" vertex="1" parent="1">
          <mxGeometry x="80" y="280" width="160" height="130" as="geometry" />
        </mxCell>
        <mxCell id="opVXN3zFpJdvf0EpLGTF-26" value="+ hijos: array" style="text;strokeColor=none;fillColor=none;align=left;verticalAlign=top;spacingLeft=4;spacingRight=4;overflow=hidden;rotatable=0;points=[[0,0.5],[1,0.5]];portConstraint=eastwest;whiteSpace=wrap;html=1;" vertex="1" parent="opVXN3zFpJdvf0EpLGTF-25">
          <mxGeometry y="26" width="160" height="34" as="geometry" />
        </mxCell>
        <mxCell id="opVXN3zFpJdvf0EpLGTF-27" value="" style="line;strokeWidth=1;fillColor=none;align=left;verticalAlign=middle;spacingTop=-1;spacingLeft=3;spacingRight=3;rotatable=0;labelPosition=right;points=[];portConstraint=eastwest;strokeColor=inherit;" vertex="1" parent="opVXN3zFpJdvf0EpLGTF-25">
          <mxGeometry y="60" width="160" height="8" as="geometry" />
        </mxCell>
        <mxCell id="opVXN3zFpJdvf0EpLGTF-28" value="+ buscarAct()&lt;div&gt;+ contactarProf()&lt;/div&gt;&lt;div&gt;+ dejarReseña()&lt;/div&gt;" style="text;strokeColor=none;fillColor=none;align=left;verticalAlign=top;spacingLeft=4;spacingRight=4;overflow=hidden;rotatable=0;points=[[0,0.5],[1,0.5]];portConstraint=eastwest;whiteSpace=wrap;html=1;" vertex="1" parent="opVXN3zFpJdvf0EpLGTF-25">
          <mxGeometry y="68" width="160" height="62" as="geometry" />
        </mxCell>
        <mxCell id="opVXN3zFpJdvf0EpLGTF-33" value="" style="endArrow=open;endFill=1;endSize=12;html=1;rounded=0;entryX=0.438;entryY=-0.009;entryDx=0;entryDy=0;entryPerimeter=0;exitX=0.619;exitY=0.968;exitDx=0;exitDy=0;exitPerimeter=0;" edge="1" parent="1" source="opVXN3zFpJdvf0EpLGTF-28" target="opVXN3zFpJdvf0EpLGTF-21">
          <mxGeometry width="160" relative="1" as="geometry">
            <mxPoint x="180" y="420" as="sourcePoint" />
            <mxPoint x="640" y="490" as="targetPoint" />
            <Array as="points">
              <mxPoint x="180" y="440" />
              <mxPoint x="180" y="480" />
              <mxPoint x="270" y="480" />
              <mxPoint x="270" y="500" />
            </Array>
          </mxGeometry>
        </mxCell>
        <mxCell id="opVXN3zFpJdvf0EpLGTF-34" value="1,n" style="text;strokeColor=none;align=center;fillColor=none;html=1;verticalAlign=middle;whiteSpace=wrap;rounded=0;" vertex="1" parent="1">
          <mxGeometry x="180" y="440" width="60" height="30" as="geometry" />
        </mxCell>
        <mxCell id="opVXN3zFpJdvf0EpLGTF-37" value="1,n" style="text;strokeColor=none;align=center;fillColor=none;html=1;verticalAlign=middle;whiteSpace=wrap;rounded=0;" vertex="1" parent="1">
          <mxGeometry x="330" y="450" width="60" height="30" as="geometry" />
        </mxCell>
        <mxCell id="opVXN3zFpJdvf0EpLGTF-42" value="" style="endArrow=open;endFill=1;endSize=12;html=1;rounded=0;entryX=0.544;entryY=1.048;entryDx=0;entryDy=0;entryPerimeter=0;exitX=0.338;exitY=1.081;exitDx=0;exitDy=0;exitPerimeter=0;" edge="1" parent="1" source="opVXN3zFpJdvf0EpLGTF-28" target="opVXN3zFpJdvf0EpLGTF-12">
          <mxGeometry width="160" relative="1" as="geometry">
            <mxPoint x="160" y="800" as="sourcePoint" />
            <mxPoint x="560" y="800" as="targetPoint" />
            <Array as="points">
              <mxPoint x="134" y="800" />
              <mxPoint x="557" y="800" />
            </Array>
          </mxGeometry>
        </mxCell>
        <mxCell id="opVXN3zFpJdvf0EpLGTF-43" value="1" style="endArrow=open;html=1;endSize=12;startArrow=diamondThin;startSize=14;startFill=0;edgeStyle=orthogonalEdgeStyle;align=left;verticalAlign=bottom;rounded=0;exitX=0.463;exitY=1.065;exitDx=0;exitDy=0;exitPerimeter=0;entryX=0.563;entryY=0;entryDx=0;entryDy=0;entryPerimeter=0;" edge="1" parent="1" source="opVXN3zFpJdvf0EpLGTF-16" target="opVXN3zFpJdvf0EpLGTF-21">
          <mxGeometry x="-1" y="3" relative="1" as="geometry">
            <mxPoint x="490" y="660" as="sourcePoint" />
            <mxPoint x="650" y="660" as="targetPoint" />
            <Array as="points">
              <mxPoint x="394" y="480" />
              <mxPoint x="290" y="480" />
            </Array>
          </mxGeometry>
        </mxCell>
        <mxCell id="opVXN3zFpJdvf0EpLGTF-44" value="" style="endArrow=open;endFill=1;endSize=12;html=1;rounded=0;exitX=0.556;exitY=1.032;exitDx=0;exitDy=0;exitPerimeter=0;entryX=0.438;entryY=0;entryDx=0;entryDy=0;entryPerimeter=0;" edge="1" parent="1" source="opVXN3zFpJdvf0EpLGTF-16" target="opVXN3zFpJdvf0EpLGTF-9">
          <mxGeometry width="160" relative="1" as="geometry">
            <mxPoint x="414" y="470" as="sourcePoint" />
            <mxPoint x="540" y="510" as="targetPoint" />
            <Array as="points">
              <mxPoint x="409" y="480" />
              <mxPoint x="540" y="480" />
            </Array>
          </mxGeometry>
        </mxCell>
        <mxCell id="opVXN3zFpJdvf0EpLGTF-45" value="1,n" style="text;strokeColor=none;align=center;fillColor=none;html=1;verticalAlign=middle;whiteSpace=wrap;rounded=0;" vertex="1" parent="1">
          <mxGeometry x="410" y="450" width="60" height="30" as="geometry" />
        </mxCell>
        <mxCell id="opVXN3zFpJdvf0EpLGTF-46" value="1,n" style="text;strokeColor=none;align=center;fillColor=none;html=1;verticalAlign=middle;whiteSpace=wrap;rounded=0;" vertex="1" parent="1">
          <mxGeometry x="70" y="770" width="60" height="30" as="geometry" />
        </mxCell>
        <mxCell id="opVXN3zFpJdvf0EpLGTF-47" value="" style="endArrow=open;endFill=1;endSize=12;html=1;rounded=0;entryX=0.656;entryY=-0.006;entryDx=0;entryDy=0;entryPerimeter=0;" edge="1" parent="1" target="opVXN3zFpJdvf0EpLGTF-9">
          <mxGeometry width="160" relative="1" as="geometry">
            <mxPoint x="620" y="423" as="sourcePoint" />
            <mxPoint x="650" y="460" as="targetPoint" />
            <Array as="points">
              <mxPoint x="620" y="460" />
              <mxPoint x="620" y="480" />
              <mxPoint x="575" y="480" />
            </Array>
          </mxGeometry>
        </mxCell>
        <mxCell id="opVXN3zFpJdvf0EpLGTF-48" value="" style="endArrow=open;endFill=1;endSize=12;html=1;rounded=0;" edge="1" parent="1">
          <mxGeometry width="160" relative="1" as="geometry">
            <mxPoint x="660" y="421" as="sourcePoint" />
            <mxPoint x="362" y="716" as="targetPoint" />
            <Array as="points">
              <mxPoint x="660" y="530" />
              <mxPoint x="660" y="570" />
              <mxPoint x="660" y="650" />
              <mxPoint x="660" y="720" />
            </Array>
          </mxGeometry>
        </mxCell>
        <mxCell id="opVXN3zFpJdvf0EpLGTF-49" value="1,n" style="text;strokeColor=none;align=center;fillColor=none;html=1;verticalAlign=middle;whiteSpace=wrap;rounded=0;" vertex="1" parent="1">
          <mxGeometry x="560" y="450" width="60" height="30" as="geometry" />
        </mxCell>
        <mxCell id="opVXN3zFpJdvf0EpLGTF-50" value="1,n" style="text;strokeColor=none;align=center;fillColor=none;html=1;verticalAlign=middle;whiteSpace=wrap;rounded=0;" vertex="1" parent="1">
          <mxGeometry x="630" y="730" width="60" height="30" as="geometry" />
        </mxCell>
      </root>
    </mxGraphModel>
  </diagram>
</mxfile>
